<svg width="22" height="21" viewBox="0 0 22 21" fill="none" xmlns="http://www.w3.org/2000/svg">
<path d="M13.3465 2.9703C15.375 2.9703 17.4035 2.9703 19.4319 2.9703C20.5258 2.9703 21.4141 3.68916 21.6306 4.74424C21.7107 5.13366 21.6433 5.50872 21.5548 5.88716C21.1241 7.72192 20.7003 9.55752 20.2738 11.3931C20.1424 11.9591 20.0185 12.5276 19.8735 13.091C19.6215 14.0633 18.7704 14.7112 17.7633 14.7112C14.2634 14.7112 10.7635 14.707 7.26363 14.7138C6.07958 14.7163 5.24949 13.8674 5.05734 12.9474C4.77418 11.5866 4.44551 10.235 4.13623 8.8792C3.7275 7.09006 3.31709 5.30091 2.91341 3.51092C2.86285 3.28791 2.74571 3.14938 2.53924 3.05646C1.96449 2.79881 1.3948 2.53019 0.824266 2.2641C0.405425 2.06812 0.225079 1.6069 0.398683 1.18791C0.57313 0.768921 1.04843 0.551825 1.46896 0.728374C1.95859 0.933644 2.43727 1.16764 2.92016 1.39064C3.05668 1.45316 3.1932 1.51735 3.32804 1.58324C3.99381 1.90424 4.37641 2.43811 4.53653 3.15445C4.83486 4.48744 5.1433 5.81789 5.44753 7.14919C5.8276 8.815 6.20768 10.4817 6.5886 12.1475C6.62568 12.3114 6.66444 12.4752 6.71164 12.6366C6.78074 12.8765 6.95435 13.0099 7.20211 13.0243C7.24088 13.0268 7.2788 13.026 7.31757 13.026C10.7787 13.026 14.2407 13.026 17.7018 13.026C18.022 13.026 18.2032 12.8959 18.2774 12.585C18.4687 11.7842 18.6516 10.9817 18.8378 10.1801C19.0881 9.10221 19.3375 8.02433 19.587 6.94645C19.7126 6.40413 19.8255 5.85844 19.9696 5.32119C20.053 5.01033 19.8078 4.653 19.421 4.65469C17.1262 4.66483 14.8314 4.65976 12.5366 4.65976C10.7425 4.65976 8.94911 4.65723 7.15492 4.66145C6.80265 4.6623 6.51865 4.55333 6.32229 4.24922C5.99699 3.74407 6.32651 3.04632 6.92401 2.98128C7.02429 2.9703 7.12711 2.97114 7.22824 2.97114C9.26682 2.97114 11.3062 2.97114 13.3448 2.97114L13.3465 2.9703Z" fill="#171719"/>
<path d="M8.77213 16.3762C9.94607 16.3813 10.8975 17.3485 10.8941 18.5345C10.8908 19.7061 9.91657 20.6717 8.74264 20.6666C7.57039 20.6624 6.60545 19.6825 6.60967 18.5024C6.61388 17.3451 7.6041 16.3711 8.77213 16.3762ZM7.95215 18.5159C7.95889 18.9704 8.31537 19.3243 8.7637 19.3201C9.20277 19.3159 9.56515 18.9476 9.56009 18.5092C9.55588 18.0741 9.18423 17.716 8.74179 17.721C8.312 17.7261 7.94541 18.0944 7.9513 18.5159H7.95215Z" fill="#171719"/>
<path d="M14.0603 18.5142C14.073 17.3282 15.0547 16.3627 16.2329 16.3787C17.4119 16.3939 18.3684 17.3603 18.3381 18.5362C18.3027 19.9139 17.2374 20.6632 16.1747 20.6632C15.0143 20.6632 14.0485 19.669 14.0612 18.5142H14.0603ZM16.1857 17.7202C15.7576 17.721 15.4011 18.091 15.4045 18.5303C15.4079 18.9704 15.7711 19.3243 16.2152 19.3209C16.6501 19.3176 17.0091 18.9526 17.0057 18.5184C17.0015 18.0783 16.6324 17.7185 16.1857 17.7202Z" fill="#171719"/>
</svg>
