<svg width="22" height="21" viewBox="0 0 22 21" fill="none" xmlns="http://www.w3.org/2000/svg">
<path d="M13.3475 2.96773C15.376 2.96773 17.4044 2.96773 19.4329 2.96773C20.5268 2.96773 21.415 3.6866 21.6316 4.74167C21.7117 5.13109 21.6443 5.50615 21.5558 5.88459C21.1251 7.71936 20.7012 9.55496 20.2748 11.3906C20.1433 11.9565 20.0195 12.525 19.8745 13.0885C19.6225 14.0608 18.7714 14.7087 17.7643 14.7087C14.2644 14.7087 10.7645 14.7045 7.26461 14.7112C6.08056 14.7137 5.25046 13.8648 5.05832 12.9449C4.77516 11.584 4.44649 10.2324 4.1372 8.87664C3.72848 7.08749 3.31806 5.29835 2.91439 3.50836C2.86383 3.28535 2.74669 3.14682 2.54022 3.05389C1.96547 2.79625 1.39578 2.52763 0.825243 2.26154C0.406402 2.06556 0.226056 1.60433 0.39966 1.18535C0.574107 0.766358 1.04941 0.549262 1.46994 0.725811C1.95957 0.931081 2.43824 1.16507 2.92113 1.38808C3.05766 1.45059 3.19418 1.51479 3.32902 1.58068C3.99478 1.90168 4.37739 2.43555 4.53751 3.15188C4.83583 4.48487 5.14428 5.81533 5.44851 7.14663C5.82858 8.81244 6.20866 10.4791 6.58957 12.1449C6.62665 12.3088 6.66542 12.4727 6.71261 12.634C6.78172 12.8739 6.95532 13.0074 7.20309 13.0217C7.24185 13.0243 7.27978 13.0234 7.31854 13.0234C10.7797 13.0234 14.2416 13.0234 17.7028 13.0234C18.023 13.0234 18.2042 12.8933 18.2784 12.5825C18.4697 11.7817 18.6525 10.9792 18.8388 10.1775C19.0891 9.09965 19.3385 8.02177 19.588 6.94389C19.7135 6.40157 19.8265 5.85587 19.9706 5.31862C20.054 5.00776 19.8088 4.65044 19.422 4.65213C17.1272 4.66227 14.8324 4.6572 12.5376 4.6572C10.7434 4.6572 8.95008 4.65466 7.15589 4.65889C6.80363 4.65973 6.51963 4.55076 6.32327 4.24666C5.99797 3.74151 6.32748 3.04376 6.92498 2.97871C7.02527 2.96773 7.12808 2.96858 7.22921 2.96858C9.2678 2.96858 11.3072 2.96858 13.3458 2.96858L13.3475 2.96773Z" fill="#171719"/>
<path d="M8.77311 16.3736C9.94704 16.3787 10.8985 17.3459 10.8951 18.5319C10.8918 19.7036 9.91755 20.6691 8.74361 20.664C7.57136 20.6598 6.60643 19.6799 6.61064 18.4998C6.61486 17.3426 7.60507 16.3686 8.77311 16.3736ZM7.95312 18.5134C7.95987 18.9678 8.31634 19.3218 8.76468 19.3175C9.20375 19.3133 9.56612 18.945 9.56107 18.5066C9.55686 18.0716 9.18521 17.7134 8.74277 17.7185C8.31297 17.7235 7.94638 18.0918 7.95228 18.5134H7.95312Z" fill="#171719"/>
<path d="M14.0613 18.5117C14.0739 17.3257 15.0557 16.3601 16.2339 16.3762C17.4129 16.3914 18.3694 17.3578 18.339 18.5336C18.3036 19.9114 17.2384 20.6607 16.1757 20.6607C15.0153 20.6607 14.0495 19.6664 14.0621 18.5117H14.0613ZM16.1867 17.7176C15.7586 17.7185 15.4021 18.0885 15.4055 18.5277C15.4088 18.9678 15.7721 19.3218 16.2162 19.3184C16.651 19.315 17.01 18.9501 17.0067 18.5159C17.0024 18.0758 16.6333 17.7159 16.1867 17.7176Z" fill="#171719"/>
</svg>
