<svg width="20" height="18" viewBox="0 0 20 18" fill="none" xmlns="http://www.w3.org/2000/svg">
<path fill-rule="evenodd" clip-rule="evenodd" d="M6.77968 0C5.86088 0 5.06261 0.625627 4.84028 1.51493L4.21901 4L2.14582 4C0.932127 4 0.00971211 5.06521 0.148025 6.25202C0.295832 7.52029 0.499788 9.54313 0.499788 11C0.499788 12.4146 0.307426 14.364 0.160657 15.6389C0.0160278 16.8953 1.05269 17.9938 2.33004 17.8912C4.15782 17.7443 7.57096 17.5 9.99979 17.5C12.4286 17.5 15.8418 17.7443 17.6695 17.8912C18.9469 17.9938 19.9835 16.8953 19.8389 15.6389C19.6922 14.364 19.4998 12.4146 19.4998 11C19.4998 9.54313 19.7037 7.52029 19.8516 6.25202C19.9899 5.06521 19.0674 4 17.8538 4H15.7806L15.1593 1.51493C14.937 0.625626 14.1387 0 13.2199 0H13.2149H13.2099H13.2049H13.1999H13.1949H13.1899H13.1848H13.1798H13.1747H13.1696H13.1646H13.1595H13.1543H13.1492H13.1441H13.1389H13.1338H13.1286H13.1234H13.1182H13.113H13.1078H13.1026H13.0974H13.0921H13.0869H13.0816H13.0763H13.071H13.0657H13.0604H13.0551H13.0498H13.0444H13.0391H13.0337H13.0283H13.0229H13.0176H13.0121H13.0067H13.0013H12.9959H12.9904H12.985H12.9795H12.974H12.9685H12.963H12.9575H12.952H12.9465H12.941H12.9354H12.9298H12.9243H12.9187H12.9131H12.9075H12.9019H12.8963H12.8907H12.8851H12.8794H12.8738H12.8681H12.8624H12.8567H12.8511H12.8454H12.8397H12.8339H12.8282H12.8225H12.8167H12.811H12.8052H12.7994H12.7937H12.7879H12.7821H12.7763H12.7705H12.7646H12.7588H12.753H12.7471H12.7413H12.7354H12.7295H12.7236H12.7178H12.7119H12.706H12.7H12.6941H12.6882H12.6822H12.6763H12.6703H12.6644H12.6584H12.6524H12.6464H12.6404H12.6344H12.6284H12.6224H12.6164H12.6104H12.6043H12.5983H12.5922H12.5862H12.5801H12.574H12.5679H12.5618H12.5557H12.5496H12.5435H12.5374H12.5313H12.5251H12.519H12.5128H12.5067H12.5005H12.4943H12.4882H12.482H12.4758H12.4696H12.4634H12.4572H12.451H12.4447H12.4385H12.4323H12.426H12.4198H12.4135H12.4073H12.401H12.3947H12.3884H12.3822H12.3759H12.3696H12.3633H12.357H12.3506H12.3443H12.338H12.3317H12.3253H12.319H12.3126H12.3063H12.2999H12.2935H12.2872H12.2808H12.2744H12.268H12.2616H12.2552H12.2488H12.2424H12.236H12.2295H12.2231H12.2167H12.2103H12.2038H12.1974H12.1909H12.1845H12.178H12.1715H12.1651H12.1586H12.1521H12.1456H12.1391H12.1326H12.1261H12.1196H12.1131H12.1066H12.1001H12.0936H12.087H12.0805H12.074H12.0674H12.0609H12.0543H12.0478H12.0412H12.0347H12.0281H12.0215H12.015H12.0084H12.0018H11.9952H11.9886H11.9821H11.9755H11.9689H11.9623H11.9557H11.9491H11.9424H11.9358H11.9292H11.9226H11.916H11.9093H11.9027H11.8961H11.8894H11.8828H11.8761H11.8695H11.8628H11.8562H11.8495H11.8429H11.8362H11.8296H11.8229H11.8162H11.8095H11.8029H11.7962H11.7895H11.7828H11.7761H11.7695H11.7628H11.7561H11.7494H11.7427H11.736H11.7293H11.7226H11.7159H11.7092H11.7025H11.6957H11.689H11.6823H11.6756H11.6689H11.6622H11.6554H11.6487H11.642H11.6353H11.6285H11.6218H11.6151H11.6083H11.6016H11.5949H11.5881H11.5814H11.5746H11.5679H11.5612H11.5544H11.5477H11.5409H11.5342H11.5274H11.5207H11.5139H11.5072H11.5004H11.4937H11.4869H11.4802H11.4734H11.4666H11.4599H11.4531H11.4464H11.4396H11.4329H11.4261H11.4193H11.4126H11.4058H11.3991H11.3923H11.3855H11.3788H11.372H11.3652H11.3585H11.3517H11.345H11.3382H11.3314H11.3247H11.3179H11.3112H11.3044H11.2976H11.2909H11.2841H11.2774H11.2706H11.2638H11.2571H11.2503H11.2436H11.2368H11.2301H11.2233H11.2166H11.2098H11.2031H11.1963H11.1896H11.1828H11.1761H11.1693H11.1626H11.1558H11.1491H11.1423H11.1356H11.1289H11.1221H11.1154H11.1087H11.1019H11.0952H11.0885H11.0817H11.075H11.0683H11.0616H11.0548H11.0481H11.0414H11.0347H11.028H11.0213H11.0145H11.0078H11.0011H10.9944H10.9877H10.981H10.9743H10.9676H10.9609H10.9543H10.9476H10.9409H10.9342H10.9275H10.9208H10.9142H10.9075H10.9008H10.8941H10.8875H10.8808H10.8742H10.8675H10.8608H10.8542H10.8476H10.8409H10.8343H10.8276H10.821H10.8144H10.8077H10.8011H10.7945H10.7879H10.7812H10.7746H10.768H10.7614H10.7548H10.7482H10.7416H10.735H10.7284H10.7219H10.7153H10.7087H10.7021H10.6956H10.689H10.6824H10.6759H10.6693H10.6628H10.6562H10.6497H10.6432H10.6366H10.6301H10.6236H10.6171H10.6105H10.604H10.5975H10.591H10.5845H10.578H10.5715H10.5651H10.5586H10.5521H10.5456H10.5392H10.5327H10.5263H10.5198H10.5134H10.5069H10.5005H10.4941H10.4876H10.4812H10.4748H10.4684H10.462H10.4556H10.4492H10.4428H10.4364H10.4301H10.4237H10.4173H10.411H10.4046H10.3983H10.3919H10.3856H10.3793H10.3729H10.3666H10.3603H10.354H10.3477H10.3414H10.3351H10.3288H10.3226H10.3163H10.31H10.3038H10.2975H10.2913H10.285H10.2788H10.2726H10.2664H10.2602H10.2539H10.2477H10.2416H10.2354H10.2292H10.223H10.2169H10.2107H10.2045H10.1984H10.1923H10.1861H10.18H10.1739H10.1678H10.1617H10.1556H10.1495H10.1434H10.1373H10.1313H10.1252H10.1192H10.1131H10.1071H10.1011H10.095H10.089H10.083H10.077H10.071H10.0651H10.0591H10.0531H10.0472H10.0412H10.0353H10.0293H10.0234H10.0175H10.0116H10.0057H9.99979H9.9939H9.98799H9.98209H9.97617H9.97024H9.96431H9.95837H9.95242H9.94646H9.94049H9.93452H9.92854H9.92255H9.91655H9.91055H9.90453H9.89851H9.89249H9.88645H9.88041H9.87436H9.8683H9.86223H9.85616H9.85008H9.84399H9.8379H9.8318H9.82569H9.81957H9.81345H9.80732H9.80118H9.79503H9.78888H9.78272H9.77656H9.77039H9.76421H9.75802H9.75183H9.74563H9.73943H9.73321H9.72699H9.72077H9.71454H9.7083H9.70205H9.6958H9.68955H9.68328H9.67701H9.67074H9.66445H9.65816H9.65187H9.64557H9.63926H9.63295H9.62663H9.62031H9.61398H9.60764H9.6013H9.59495H9.5886H9.58224H9.57588H9.5695H9.56313H9.55675H9.55036H9.54397H9.53757H9.53117H9.52476H9.51835H9.51193H9.50551H9.49908H9.49264H9.4862H9.47976H9.47331H9.46686H9.4604H9.45393H9.44747H9.44099H9.43451H9.42803H9.42154H9.41505H9.40856H9.40205H9.39555H9.38904H9.38252H9.37601H9.36948H9.36295H9.35642H9.34989H9.34335H9.3368H9.33025H9.3237H9.31714H9.31058H9.30402H9.29745H9.29088H9.2843H9.27772H9.27114H9.26455H9.25796H9.25136H9.24476H9.23816H9.23155H9.22495H9.21833H9.21172H9.2051H9.19848H9.19185H9.18522H9.17859H9.17195H9.16531H9.15867H9.15203H9.14538H9.13873H9.13207H9.12542H9.11876H9.1121H9.10543H9.09876H9.09209H9.08542H9.07874H9.07206H9.06538H9.0587H9.05201H9.04533H9.03864H9.03194H9.02525H9.01855H9.01185H9.00515H8.99844H8.99174H8.98503H8.97832H8.97161H8.96489H8.95818H8.95146H8.94474H8.93802H8.93129H8.92457H8.91784H8.91111H8.90438H8.89765H8.89092H8.88418H8.87745H8.87071H8.86397H8.85723H8.85049H8.84375H8.837H8.83026H8.82351H8.81677H8.81002H8.80327H8.79652H8.78977H8.78302H8.77626H8.76951H8.76275H8.756H8.74924H8.74249H8.73573H8.72897H8.72221H8.71546H8.7087H8.70194H8.69518H8.68842H8.68166H8.6749H8.66814H8.66138H8.65461H8.64785H8.64109H8.63433H8.62757H8.62081H8.61405H8.60729H8.60052H8.59376H8.587H8.58024H8.57348H8.56672H8.55997H8.55321H8.54645H8.53969H8.53294H8.52618H8.51942H8.51267H8.50592H8.49916H8.49241H8.48566H8.47891H8.47216H8.46541H8.45866H8.45191H8.44517H8.43842H8.43168H8.42494H8.4182H8.41146H8.40472H8.39798H8.39125H8.38451H8.37778H8.37105H8.36432H8.35759H8.35087H8.34414H8.33742H8.3307H8.32398H8.31726H8.31054H8.30383H8.29712H8.29041H8.2837H8.277H8.27029H8.26359H8.25689H8.2502H8.2435H8.23681H8.23012H8.22343H8.21675H8.21006H8.20338H8.19671H8.19003H8.18336H8.17669H8.17002H8.16336H8.1567H8.15004H8.14338H8.13673H8.13008H8.12343H8.11679H8.11015H8.10351H8.09688H8.09025H8.08362H8.07699H8.07037H8.06375H8.05714H8.05053H8.04392H8.03731H8.03071H8.02412H8.01752H8.01093H8.00435H7.99776H7.99118H7.98461H7.97804H7.97147H7.96491H7.95835H7.95179H7.94524H7.93869H7.93215H7.92561H7.91908H7.91255H7.90602H7.8995H7.89298H7.88647H7.87996H7.87345H7.86695H7.86046H7.85397H7.84748H7.841H7.83453H7.82805H7.82159H7.81512H7.80867H7.80222H7.79577H7.78933H7.78289H7.77646H7.77003H7.76361H7.75719H7.75078H7.74437H7.73797H7.73158H7.72519H7.7188H7.71242H7.70605H7.69968H7.69332H7.68696H7.68061H7.67426H7.66792H7.66159H7.65526H7.64894H7.64262H7.63631H7.63001H7.62371H7.61742H7.61113H7.60485H7.59858H7.59231H7.58605H7.57979H7.57354H7.5673H7.56106H7.55483H7.54861H7.54239H7.53618H7.52998H7.52378H7.51759H7.51141H7.50523H7.49906H7.4929H7.48674H7.48059H7.47445H7.46832H7.46219H7.45607H7.44995H7.44385H7.43775H7.43166H7.42557H7.41949H7.41342H7.40736H7.4013H7.39526H7.38922H7.38318H7.37716H7.37114H7.36513H7.35913H7.35313H7.34715H7.34117H7.3352H7.32923H7.32328H7.31733H7.31139H7.30546H7.29954H7.29362H7.28772H7.28182H7.27593H7.27005H7.26417H7.25831H7.25245H7.2466H7.24076H7.23493H7.22911H7.2233H7.21749H7.2117H7.20591H7.20013H7.19436H7.1886H7.18285H7.1771H7.17137H7.16564H7.15993H7.15422H7.14852H7.14283H7.13715H7.13148H7.12582H7.12017H7.11453H7.10889H7.10327H7.09766H7.09205H7.08646H7.08087H7.07529H7.06973H7.06417H7.05863H7.05309H7.04756H7.04205H7.03654H7.03104H7.02555H7.02008H7.01461H7.00915H7.00371H6.99827H6.99284H6.98743H6.98202H6.97663H6.97124H6.96587H6.9605H6.95515H6.94981H6.94448H6.93915H6.93384H6.92854H6.92325H6.91798H6.91271H6.90745H6.9022H6.89697H6.89175H6.88653H6.88133H6.87614H6.87096H6.86579H6.86063H6.85549H6.85035H6.84523H6.84012H6.83502H6.82993H6.82485H6.81979H6.81473H6.80969H6.80466H6.79964H6.79463H6.78963H6.78465H6.77968ZM6.78056 2H6.78465L13.8599 4.55782C14.1069 5.40924 14.888 6 15.7806 6H17.8492L17.8596 6.00376C17.8623 6.00683 17.8639 6.00996 17.8646 6.01214L17.8648 6.01274L17.8652 6.01488C17.8652 6.01571 17.8654 6.01746 17.865 6.0205C17.7171 7.2894 17.4998 9.41516 17.4998 11C17.4998 12.5404 17.705 14.5906 17.852 15.8677C17.8525 15.8715 17.8523 15.8738 17.8522 15.8749C17.8521 15.8761 17.8518 15.8773 17.8513 15.8787C17.8502 15.8818 17.8478 15.8863 17.8435 15.8908C17.8411 15.8933 17.839 15.8949 17.8373 15.896C17.8361 15.8968 17.8351 15.8972 17.8346 15.8974L17.834 15.8976L17.833 15.8977L17.8297 15.8976C16.0041 15.751 12.5181 15.5 9.99979 15.5C7.48148 15.5 3.99543 15.751 2.16991 15.8976L2.1666 15.8977L2.16561 15.8976L2.16495 15.8974C2.16385 15.897 2.16028 15.8952 2.15604 15.8908C2.15178 15.8863 2.14935 15.8818 2.14826 15.8787C2.14778 15.8773 2.14751 15.8761 2.14737 15.8749C2.14725 15.8738 2.14709 15.8715 2.14753 15.8677C2.29455 14.5906 2.49979 12.5404 2.49979 11C2.49979 9.41516 2.28246 7.2894 2.13458 6.0205C2.13423 6.01746 2.13433 6.01571 2.13442 6.01488C2.13451 6.01397 2.13469 6.01311 2.135 6.01214C2.1357 6.00996 2.13728 6.00683 2.13998 6.00376C2.14188 6.00161 2.14343 6.00051 2.14414 6.00006L2.14582 6H4.21901C5.13675 6 5.93671 5.37541 6.1593 4.48507L6.78056 2ZM17.8492 6H17.8538L17.8554 6.00006L13.8595 4.55625C13.8527 4.53272 13.8463 4.50899 13.8403 4.48507L13.219 2L13.2149 2H13.2099H13.2049H13.1999H13.1949H13.1899H13.1848H13.1798H13.1747H13.1696H13.1646H13.1595H13.1543H13.1492H13.1441H13.1389H13.1338H13.1286H13.1234H13.1182H13.113H13.1078H13.1026H13.0974H13.0921H13.0869H13.0816H13.0763H13.071H13.0657H13.0604H13.0551H13.0498H13.0444H13.0391H13.0337H13.0283H13.0229H13.0176H13.0121H13.0067H13.0013H12.9959H12.9904H12.985H12.9795H12.974H12.9685H12.963H12.9575H12.952H12.9465H12.941H12.9354H12.9298H12.9243H12.9187H12.9131H12.9075H12.9019H12.8963H12.8907H12.8851H12.8794H12.8738H12.8681H12.8624H12.8567H12.8511H12.8454H12.8397H12.8339H12.8282H12.8225H12.8167H12.811H12.8052H12.7994H12.7937H12.7879H12.7821H12.7763H12.7705H12.7646H12.7588H12.753H12.7471H12.7413H12.7354H12.7295H12.7236H12.7178H12.7119H12.706H12.7H12.6941H12.6882H12.6822H12.6763H12.6703H12.6644H12.6584H12.6524H12.6464H12.6404H12.6344H12.6284H12.6224H12.6164H12.6104H12.6043H12.5983H12.5922H12.5862H12.5801H12.574H12.5679H12.5618H12.5557H12.5496H12.5435H12.5374H12.5313H12.5251H12.519H12.5128H12.5067H12.5005H12.4943H12.4882H12.482H12.4758H12.4696H12.4634H12.4572H12.451H12.4447H12.4385H12.4323H12.426H12.4198H12.4135H12.4073H12.401H12.3947H12.3884H12.3822H12.3759H12.3696H12.3633H12.357H12.3506H12.3443H12.338H12.3317H12.3253H12.319H12.3126H12.3063H12.2999H12.2935H12.2872H12.2808H12.2744H12.268H12.2616H12.2552H12.2488H12.2424H12.236H12.2295H12.2231H12.2167H12.2103H12.2038H12.1974H12.1909H12.1845H12.178H12.1715H12.1651H12.1586H12.1521H12.1456H12.1391H12.1326H12.1261H12.1196H12.1131H12.1066H12.1001H12.0936H12.087H12.0805H12.074H12.0674H12.0609H12.0543H12.0478H12.0412H12.0347H12.0281H12.0215H12.015H12.0084H12.0018H11.9952H11.9886H11.9821H11.9755H11.9689H11.9623H11.9557H11.9491H11.9424H11.9358H11.9292H11.9226H11.916H11.9093H11.9027H11.8961H11.8894H11.8828H11.8761H11.8695H11.8628H11.8562H11.8495H11.8429H11.8362H11.8296H11.8229H11.8162H11.8095H11.8029H11.7962H11.7895H11.7828H11.7761H11.7695H11.7628H11.7561H11.7494H11.7427H11.736H11.7293H11.7226H11.7159H11.7092H11.7025H11.6957H11.689H11.6823H11.6756H11.6689H11.6622H11.6554H11.6487H11.642H11.6353H11.6285H11.6218H11.6151H11.6083H11.6016H11.5949H11.5881H11.5814H11.5746H11.5679H11.5612H11.5544H11.5477H11.5409H11.5342H11.5274H11.5207H11.5139H11.5072H11.5004H11.4937H11.4869H11.4802H11.4734H11.4666H11.4599H11.4531H11.4464H11.4396H11.4329H11.4261H11.4193H11.4126H11.4058H11.3991H11.3923H11.3855H11.3788H11.372H11.3652H11.3585H11.3517H11.345H11.3382H11.3314H11.3247H11.3179H11.3112H11.3044H11.2976H11.2909H11.2841H11.2774H11.2706H11.2638H11.2571H11.2503H11.2436H11.2368H11.2301H11.2233H11.2166H11.2098H11.2031H11.1963H11.1896H11.1828H11.1761H11.1693H11.1626H11.1558H11.1491H11.1423H11.1356H11.1289H11.1221H11.1154H11.1087H11.1019H11.0952H11.0885H11.0817H11.075H11.0683H11.0616H11.0548H11.0481H11.0414H11.0347H11.028H11.0213H11.0145H11.0078H11.0011H10.9944H10.9877H10.981H10.9743H10.9676H10.9609H10.9543H10.9476H10.9409H10.9342H10.9275H10.9208H10.9142H10.9075H10.9008H10.8941H10.8875H10.8808H10.8742H10.8675H10.8608H10.8542H10.8476H10.8409H10.8343H10.8276H10.821H10.8144H10.8077H10.8011H10.7945H10.7879H10.7812H10.7746H10.768H10.7614H10.7548H10.7482H10.7416H10.735H10.7284H10.7219H10.7153H10.7087H10.7021H10.6956H10.689H10.6824H10.6759H10.6693H10.6628H10.6562H10.6497H10.6432H10.6366H10.6301H10.6236H10.6171H10.6105H10.604H10.5975H10.591H10.5845H10.578H10.5715H10.5651H10.5586H10.5521H10.5456H10.5392H10.5327H10.5263H10.5198H10.5134H10.5069H10.5005H10.4941H10.4876H10.4812H10.4748H10.4684H10.462H10.4556H10.4492H10.4428H10.4364H10.4301H10.4237H10.4173H10.411H10.4046H10.3983H10.3919H10.3856H10.3793H10.3729H10.3666H10.3603H10.354H10.3477H10.3414H10.3351H10.3288H10.3226H10.3163H10.31H10.3038H10.2975H10.2913H10.285H10.2788H10.2726H10.2664H10.2602H10.2539H10.2477H10.2416H10.2354H10.2292H10.223H10.2169H10.2107H10.2045H10.1984H10.1923H10.1861H10.18H10.1739H10.1678H10.1617H10.1556H10.1495H10.1434H10.1373H10.1313H10.1252H10.1192H10.1131H10.1071H10.1011H10.095H10.089H10.083H10.077H10.071H10.0651H10.0591H10.0531H10.0472H10.0412H10.0353H10.0293H10.0234H10.0175H10.0116H10.0057H9.99979H9.9939H9.98799H9.98209H9.97617H9.97024H9.96431H9.95837H9.95242H9.94646H9.94049H9.93452H9.92854H9.92255H9.91655H9.91055H9.90453H9.89851H9.89249H9.88645H9.88041H9.87436H9.8683H9.86223H9.85616H9.85008H9.84399H9.8379H9.8318H9.82569H9.81957H9.81345H9.80732H9.80118H9.79503H9.78888H9.78272H9.77656H9.77039H9.76421H9.75802H9.75183H9.74563H9.73943H9.73321H9.72699H9.72077H9.71454H9.7083H9.70205H9.6958H9.68955H9.68328H9.67701H9.67074H9.66445H9.65816H9.65187H9.64557H9.63926H9.63295H9.62663H9.62031H9.61398H9.60764H9.6013H9.59495H9.5886H9.58224H9.57588H9.5695H9.56313H9.55675H9.55036H9.54397H9.53757H9.53117H9.52476H9.51835H9.51193H9.50551H9.49908H9.49264H9.4862H9.47976H9.47331H9.46686H9.4604H9.45393H9.44747H9.44099H9.43451H9.42803H9.42154H9.41505H9.40856H9.40205H9.39555H9.38904H9.38252H9.37601H9.36948H9.36295H9.35642H9.34989H9.34335H9.3368H9.33025H9.3237H9.31714H9.31058H9.30402H9.29745H9.29088H9.2843H9.27772H9.27114H9.26455H9.25796H9.25136H9.24476H9.23816H9.23155H9.22495H9.21833H9.21172H9.2051H9.19848H9.19185H9.18522H9.17859H9.17195H9.16531H9.15867H9.15203H9.14538H9.13873H9.13207H9.12542H9.11876H9.1121H9.10543H9.09876H9.09209H9.08542H9.07874H9.07206H9.06538H9.0587H9.05201H9.04533H9.03864H9.03194H9.02525H9.01855H9.01185H9.00515H8.99844H8.99174H8.98503H8.97832H8.97161H8.96489H8.95818H8.95146H8.94474H8.93802H8.93129H8.92457H8.91784H8.91111H8.90438H8.89765H8.89092H8.88418H8.87745H8.87071H8.86397H8.85723H8.85049H8.84375H8.837H8.83026H8.82351H8.81677H8.81002H8.80327H8.79652H8.78977H8.78302H8.77626H8.76951H8.76275H8.756H8.74924H8.74249H8.73573H8.72897H8.72221H8.71546H8.7087H8.70194H8.69518H8.68842H8.68166H8.6749H8.66814H8.66138H8.65461H8.64785H8.64109H8.63433H8.62757H8.62081H8.61405H8.60729H8.60052H8.59376H8.587H8.58024H8.57348H8.56672H8.55997H8.55321H8.54645H8.53969H8.53294H8.52618H8.51942H8.51267H8.50592H8.49916H8.49241H8.48566H8.47891H8.47216H8.46541H8.45866H8.45191H8.44517H8.43842H8.43168H8.42494H8.4182H8.41146H8.40472H8.39798H8.39125H8.38451H8.37778H8.37105H8.36432H8.35759H8.35087H8.34414H8.33742H8.3307H8.32398H8.31726H8.31054H8.30383H8.29712H8.29041H8.2837H8.277H8.27029H8.26359H8.25689H8.2502H8.2435H8.23681H8.23012H8.22343H8.21675H8.21006H8.20338H8.19671H8.19003H8.18336H8.17669H8.17002H8.16336H8.1567H8.15004H8.14338H8.13673H8.13008H8.12343H8.11679H8.11015H8.10351H8.09688H8.09025H8.08362H8.07699H8.07037H8.06375H8.05714H8.05053H8.04392H8.03731H8.03071H8.02412H8.01752H8.01093H8.00435H7.99776H7.99118H7.98461H7.97804H7.97147H7.96491H7.95835H7.95179H7.94524H7.93869H7.93215H7.92561H7.91908H7.91255H7.90602H7.8995H7.89298H7.88647H7.87996H7.87345H7.86695H7.86046H7.85397H7.84748H7.841H7.83453H7.82805H7.82159H7.81512H7.80867H7.80222H7.79577H7.78933H7.78289H7.77646H7.77003H7.76361H7.75719H7.75078H7.74437H7.73797H7.73158H7.72519H7.7188H7.71242H7.70605H7.69968H7.69332H7.68696H7.68061H7.67426H7.66792H7.66159H7.65526H7.64894H7.64262H7.63631H7.63001H7.62371H7.61742H7.61113H7.60485H7.59858H7.59231H7.58605H7.57979H7.57354H7.5673H7.56106H7.55483H7.54861H7.54239H7.53618H7.52998H7.52378H7.51759H7.51141H7.50523H7.49906H7.4929H7.48674H7.48059H7.47445H7.46832H7.46219H7.45607H7.44995H7.44385H7.43775H7.43166H7.42557H7.41949H7.41342H7.40736H7.4013H7.39526H7.38922H7.38318H7.37716H7.37114H7.36513H7.35913H7.35313H7.34715H7.34117H7.3352H7.32923H7.32328H7.31733H7.31139H7.30546H7.29954H7.29362H7.28772H7.28182H7.27593H7.27005H7.26417H7.25831H7.25245H7.2466H7.24076H7.23493H7.22911H7.2233H7.21749H7.2117H7.20591H7.20013H7.19436H7.1886H7.18285H7.1771H7.17137H7.16564H7.15993H7.15422H7.14852H7.14283H7.13715H7.13148H7.12582H7.12017H7.11453H7.10889H7.10327H7.09766H7.09205H7.08646H7.08087H7.07529H7.06973H7.06417H7.05863H7.05309H7.04756H7.04205H7.03654H7.03104H7.02555H7.02008H7.01461H7.00915H7.00371H6.99827H6.99284H6.98743H6.98202H6.97663H6.97124H6.96587H6.9605H6.95515H6.94981H6.94448H6.93915H6.93384H6.92854H6.92325H6.91798H6.91271H6.90745H6.9022H6.89697H6.89175H6.88653H6.88133H6.87614H6.87096H6.86579H6.86063H6.85549H6.85035H6.84523H6.84012H6.83502H6.82993H6.82485H6.81979H6.81473H6.80969H6.80466H6.79964H6.79463H6.78963H6.78465L13.8595 4.55625C13.8596 4.55677 13.8598 4.55729 13.8599 4.55782L17.8492 6ZM7.99979 10C7.99979 8.89543 8.89522 8 9.99979 8C11.1044 8 11.9998 8.89543 11.9998 10C11.9998 11.1046 11.1044 12 9.99979 12C8.89522 12 7.99979 11.1046 7.99979 10ZM9.99979 6C7.79065 6 5.99979 7.79086 5.99979 10C5.99979 12.2091 7.79065 14 9.99979 14C12.2089 14 13.9998 12.2091 13.9998 10C13.9998 7.79086 12.2089 6 9.99979 6Z" fill="#787B8B"/>
</svg>
