<svg width="18" height="18" viewBox="0 0 18 18" fill="none" xmlns="http://www.w3.org/2000/svg">
<path d="M6.02427 17.6774C6.76362 17.6774 7.36298 17.0781 7.36298 16.3387C7.36298 15.5994 6.76362 15 6.02427 15C5.28491 15 4.68555 15.5994 4.68555 16.3387C4.68555 17.0781 5.28491 17.6774 6.02427 17.6774Z" fill="#787B8B"/>
<path d="M15.3954 17.6774C16.1347 17.6774 16.7341 17.0781 16.7341 16.3387C16.7341 15.5994 16.1347 15 15.3954 15C14.656 15 14.0566 15.5994 14.0566 16.3387C14.0566 17.0781 14.656 17.6774 15.3954 17.6774Z" fill="#787B8B"/>
<path d="M17.7715 2.66156C17.6775 2.53268 17.559 2.42888 17.4247 2.35769C17.2904 2.2865 17.1436 2.24971 16.995 2.25H4.26256L4.00612 0.619688C3.97877 0.446029 3.89769 0.28872 3.77711 0.175391C3.65654 0.0620626 3.50418 -3.70507e-05 3.3468 1.65845e-08H0.669359C0.491834 1.65845e-08 0.32158 0.0790178 0.196051 0.21967C0.0705216 0.360322 0 0.551088 0 0.75C0 0.948912 0.0705216 1.13968 0.196051 1.28033C0.32158 1.42098 0.491834 1.5 0.669359 1.5H2.78537L4.69556 13.6303C4.7229 13.804 4.80398 13.9613 4.92456 14.0746C5.04514 14.1879 5.1975 14.25 5.35488 14.25H16.0646C16.2422 14.25 16.4124 14.171 16.5379 14.0303C16.6635 13.8897 16.734 13.6989 16.734 13.5C16.734 13.3011 16.6635 13.1103 16.5379 12.9697C16.4124 12.829 16.2422 12.75 16.0646 12.75H5.9163L5.68035 11.25H15.7902C16.0223 11.2497 16.2472 11.1595 16.4268 10.9947C16.6064 10.8299 16.7297 10.6007 16.7758 10.3458L17.9807 3.59578C18.0097 3.43242 18.006 3.26388 17.9698 3.10232C17.9336 2.94076 17.8659 2.79022 17.7715 2.66156Z" fill="#787B8B"/>
</svg>
