<svg width="150" height="28" viewBox="0 0 150 28" fill="none" xmlns="http://www.w3.org/2000/svg">
<path d="M37.6686 0H46.0179V28H37.6686V10.84L23.1837 22.68L8.34923 10.76V28H0V0H8.34923L23.1837 11.64L37.6686 0Z" fill="#171719"/>
<path d="M85.1294 28L84.0032 23.56H58.1012L56.975 28H48.3539L55.5382 0H86.6051L93.7893 28H85.1294ZM60.0429 15.76H82.0227L80.0033 7.72H62.0622L60.0429 15.76Z" fill="#171719"/>
<rect x="97.9668" y="16.3331" width="52.0338" height="11.6422" rx="3" fill="#FFDD2D"/>
<path d="M108.993 21.2413C109.791 21.2413 110.405 21.4331 110.833 21.8168C111.269 22.1938 111.486 22.6998 111.486 23.3348C111.486 24.0757 111.213 24.6578 110.665 25.0811C110.118 25.5044 109.28 25.726 108.152 25.7459H104.056C103.528 25.7459 103.063 25.6896 102.661 25.5772C102.258 25.4581 101.945 25.3159 101.721 25.1505C101.496 24.9786 101.312 24.7768 101.166 24.5453C101.028 24.3072 100.936 24.0889 100.889 23.8905C100.85 23.6854 100.83 23.477 100.83 23.2654H103.017C103.076 23.6226 103.469 23.8012 104.194 23.8012H108.152C108.891 23.8012 109.26 23.6589 109.26 23.3745C109.26 23.1298 109.036 23.0074 108.587 23.0074H103.531C102.687 23.0074 102.044 22.8288 101.602 22.4716C101.16 22.1078 100.939 21.6117 100.939 20.9833C100.939 20.6658 100.995 20.3715 101.107 20.1003C101.219 19.8225 101.394 19.5678 101.632 19.3363C101.869 19.0982 102.202 18.913 102.631 18.7807C103.066 18.6418 103.577 18.569 104.165 18.5624H108.192C108.719 18.5624 109.184 18.6252 109.587 18.7509C109.989 18.8766 110.296 19.032 110.507 19.2172C110.725 19.3958 110.899 19.6042 111.031 19.8423C111.163 20.0804 111.246 20.2888 111.279 20.4674C111.318 20.6394 111.338 20.808 111.338 20.9734H109.151C109.105 20.6162 108.765 20.4376 108.132 20.4376H104.165C103.492 20.4376 103.155 20.5831 103.155 20.8742C103.155 21.1189 103.36 21.2413 103.769 21.2413H108.993Z" fill="#171719"/>
<path d="M120.96 18.6814H123.137V25.6268H120.96V23.0471H114.509V25.6268H112.332V18.6814H114.509V21.1123H120.96V18.6814Z" fill="#171719"/>
<path d="M144.197 18.6814C145.067 18.6814 145.773 18.9394 146.314 19.4554C146.862 19.9713 147.135 20.6063 147.135 21.3604C147.135 22.1144 146.862 22.7494 146.314 23.2654C145.773 23.7813 145.067 24.0393 144.197 24.0393H138.646V25.6268H136.469V18.6814H144.197ZM144.197 22.1244C144.408 22.1244 144.586 22.0516 144.731 21.9061C144.883 21.7539 144.959 21.572 144.959 21.3604C144.959 21.1487 144.883 20.9701 144.731 20.8246C144.586 20.6724 144.408 20.5964 144.197 20.5964H138.646V22.1244H144.197Z" fill="#171719"/>
<path fill-rule="evenodd" clip-rule="evenodd" d="M128.162 18.6205C126.219 18.6205 124.644 20.1959 124.644 22.1393C124.644 24.0827 126.219 25.6581 128.162 25.6581H131.52C133.464 25.6581 135.039 24.0827 135.039 22.1393C135.039 20.1959 133.464 18.6205 131.52 18.6205H128.162ZM128.16 20.618C127.32 20.618 126.639 21.299 126.639 22.1391C126.639 22.9792 127.32 23.6603 128.16 23.6603H131.526C132.366 23.6603 133.047 22.9792 133.047 22.1391C133.047 21.299 132.366 20.618 131.526 20.618H128.16Z" fill="#171719"/>
<path d="M97.9639 14.6667V0H113.955C115.757 0 117.218 0.544762 118.337 1.63429C119.47 2.72381 120.036 4.06476 120.036 5.65714C120.036 6.76063 119.75 7.75937 119.176 8.65333C118.617 9.5473 117.839 10.2317 116.842 10.7067L119.381 14.6667H114.16L112.215 11.3143H102.489V14.6667H97.9639ZM102.489 7.27048H113.955C114.392 7.27048 114.76 7.11682 115.061 6.80952C115.375 6.48825 115.532 6.10413 115.532 5.65714C115.532 5.21016 115.375 4.83302 115.061 4.52571C114.76 4.20444 114.392 4.04381 113.955 4.04381H102.489V7.27048Z" fill="#171719"/>
<path d="M143.455 0V4.04381H134.589V14.6667H130.084V4.04381H121.219V0H143.455Z" fill="#171719"/>
<path d="M145.493 14.6667V0H149.998V14.6667H145.493Z" fill="#171719"/>
</svg>
