<svg width="22" height="21" viewBox="0 0 22 21" fill="none" xmlns="http://www.w3.org/2000/svg">
<path d="M13.347 2.97164C15.3755 2.97164 17.4039 2.97164 19.4324 2.97164C20.5263 2.97164 21.4145 3.69051 21.6311 4.74558C21.7112 5.135 21.6438 5.51006 21.5553 5.8885C21.1246 7.72326 20.7007 9.55887 20.2743 11.3945C20.1428 11.9604 20.019 12.5289 19.874 13.0924C19.622 14.0647 18.7709 14.7126 17.7638 14.7126C14.2639 14.7126 10.764 14.7084 7.26412 14.7151C6.08007 14.7176 5.24997 13.8687 5.05783 12.9488C4.77467 11.5879 4.446 10.2363 4.13672 8.88055C3.72799 7.0914 3.31757 5.30226 2.9139 3.51227C2.86334 3.28926 2.7462 3.15072 2.53973 3.0578C1.96498 2.80016 1.39529 2.53153 0.824755 2.26544C0.405914 2.06946 0.225568 1.60824 0.399172 1.18925C0.573618 0.770264 1.04892 0.553168 1.46945 0.729717C1.95908 0.934987 2.43776 1.16898 2.92064 1.39199C3.05717 1.4545 3.19369 1.5187 3.32853 1.58459C3.99429 1.90559 4.3769 2.43946 4.53702 3.15579C4.83535 4.48878 5.14379 5.81923 5.44802 7.15053C5.82809 8.81635 6.20817 10.483 6.58909 12.1488C6.62617 12.3127 6.66493 12.4766 6.71213 12.6379C6.78123 12.8778 6.95483 13.0113 7.2026 13.0256C7.24136 13.0282 7.27929 13.0273 7.31805 13.0273C10.7792 13.0273 14.2411 13.0273 17.7023 13.0273C18.0225 13.0273 18.2037 12.8973 18.2779 12.5864C18.4692 11.7856 18.652 10.9831 18.8383 10.1814C19.0886 9.10355 19.338 8.02568 19.5875 6.9478C19.7131 6.40548 19.826 5.85978 19.9701 5.32253C20.0535 5.01167 19.8083 4.65435 19.4215 4.65604C17.1267 4.66617 14.8319 4.6611 12.5371 4.6611C10.7429 4.6611 8.9496 4.65857 7.15541 4.66279C6.80314 4.66364 6.51914 4.55467 6.32278 4.25056C5.99748 3.74541 6.32699 3.04766 6.92449 2.98262C7.02478 2.97164 7.12759 2.97248 7.22872 2.97248C9.26731 2.97248 11.3067 2.97248 13.3453 2.97248L13.347 2.97164Z" fill="#787B8B"/>
<path d="M8.77262 16.3776C9.94656 16.3826 10.898 17.3498 10.8946 18.5358C10.8913 19.7075 9.91706 20.673 8.74312 20.6679C7.57088 20.6637 6.60594 19.6838 6.61015 18.5037C6.61437 17.3465 7.60458 16.3725 8.77262 16.3776ZM7.95264 18.5173C7.95938 18.9717 8.31586 19.3257 8.76419 19.3214C9.20326 19.3172 9.56564 18.9489 9.56058 18.5105C9.55637 18.0755 9.18472 17.7173 8.74228 17.7224C8.31249 17.7274 7.94589 18.0957 7.95179 18.5173H7.95264Z" fill="#787B8B"/>
<path d="M14.0608 18.5156C14.0734 17.3296 15.0552 16.364 16.2334 16.3801C17.4124 16.3953 18.3689 17.3617 18.3385 18.5375C18.3031 19.9153 17.2379 20.6646 16.1752 20.6646C15.0148 20.6646 14.049 19.6703 14.0616 18.5156H14.0608ZM16.1862 17.7215C15.7581 17.7224 15.4016 18.0924 15.405 18.5316C15.4083 18.9717 15.7716 19.3257 16.2157 19.3223C16.6505 19.3189 17.0095 18.954 17.0062 18.5198C17.002 18.0797 16.6328 17.7198 16.1862 17.7215Z" fill="#787B8B"/>
</svg>
