<svg width="28" height="28" viewBox="0 0 28 28" fill="none" xmlns="http://www.w3.org/2000/svg">
<rect width="28" height="28" rx="14" fill="#48C95F"/>
<path d="M19.5488 8.4438C18.1659 7.06567 16.3219 6.30005 14.3756 6.30005C10.3293 6.30005 7.05122 9.56672 7.05122 13.599C7.05122 14.875 7.40976 16.1511 8.02439 17.223L7 21L10.8927 19.9792C11.9683 20.5407 13.1463 20.8469 14.3756 20.8469C18.4219 20.8469 21.7 17.5803 21.7 13.548C21.6488 11.6594 20.9317 9.82192 19.5488 8.4438ZM17.9098 16.2021C17.7561 16.6105 17.039 17.0188 16.6805 17.0698C16.3732 17.1209 15.9634 17.1209 15.5537 17.0188C15.2976 16.9167 14.939 16.8146 14.5293 16.6105C12.6854 15.8448 11.5073 14.0073 11.4049 13.8542C11.3024 13.7521 10.6366 12.8844 10.6366 11.9657C10.6366 11.0469 11.0976 10.6386 11.2512 10.4344C11.4049 10.2303 11.6098 10.2303 11.7634 10.2303C11.8659 10.2303 12.0195 10.2303 12.1219 10.2303C12.2244 10.2303 12.378 10.1792 12.5317 10.5365C12.6854 10.8938 13.0439 11.8125 13.0951 11.8636C13.1463 11.9657 13.1463 12.0678 13.0951 12.1698C13.0439 12.2719 12.9927 12.374 12.8902 12.4761C12.7878 12.5782 12.6854 12.7313 12.6341 12.7823C12.5317 12.8844 12.4293 12.9865 12.5317 13.1396C12.6341 13.3438 12.9927 13.9053 13.5561 14.4157C14.2732 15.0282 14.8366 15.2323 15.0415 15.3344C15.2463 15.4365 15.3488 15.3855 15.4512 15.2834C15.5537 15.1813 15.9122 14.773 16.0146 14.5688C16.1171 14.3646 16.2707 14.4157 16.4244 14.4667C16.578 14.5178 17.5 14.9771 17.6537 15.0792C17.8585 15.1813 17.961 15.2323 18.0122 15.2834C18.0634 15.4365 18.0634 15.7938 17.9098 16.2021Z" fill="white"/>
</svg>
