<svg width="210" height="39" viewBox="0 0 210 39" fill="none" xmlns="http://www.w3.org/2000/svg">
<path d="M52.7359 0H64.4248V39H52.7359V15.0986L32.4571 31.59L11.6889 14.9871V39H0V0H11.6889L32.4571 16.2129L52.7359 0Z" fill="#F6F8FC"/>
<path d="M119.181 39L117.604 32.8157H81.3414L79.7648 39H67.6953L77.7532 0H121.247L131.305 39H119.181ZM84.0598 21.9514H114.831L112.004 10.7529H86.8869L84.0598 21.9514Z" fill="#F6F8FC"/>
<rect x="137.153" y="22.7496" width="72.8471" height="16.2159" rx="3" fill="#FFDD2D"/>
<path d="M152.59 29.5862C153.708 29.5862 154.566 29.8534 155.167 30.3878C155.776 30.9129 156.081 31.6177 156.081 32.5022C156.081 33.5341 155.698 34.3449 154.931 34.9345C154.165 35.5242 152.992 35.8328 151.413 35.8604H145.678C144.939 35.8604 144.288 35.7821 143.725 35.6255C143.161 35.4597 142.723 35.2616 142.409 35.0313C142.095 34.7917 141.836 34.5107 141.633 34.1882C141.439 33.8566 141.31 33.5525 141.245 33.2761C141.19 32.9905 141.162 32.7003 141.162 32.4055H144.223C144.307 32.903 144.856 33.1518 145.872 33.1518H151.413C152.447 33.1518 152.964 32.9537 152.964 32.5575C152.964 32.2166 152.65 32.0462 152.022 32.0462H144.944C143.762 32.0462 142.861 31.7974 142.243 31.2999C141.624 30.7932 141.314 30.1022 141.314 29.2269C141.314 28.7847 141.393 28.3747 141.55 27.9969C141.707 27.61 141.952 27.2553 142.284 26.9328C142.617 26.6011 143.083 26.3432 143.683 26.1589C144.293 25.9654 145.008 25.8641 145.83 25.8549H151.468C152.207 25.8549 152.858 25.9424 153.421 26.1175C153.985 26.2925 154.414 26.509 154.71 26.767C155.014 27.0157 155.259 27.306 155.444 27.6376C155.628 27.9693 155.744 28.2595 155.79 28.5083C155.845 28.7478 155.873 28.9828 155.873 29.2131H152.812C152.747 28.7156 152.272 28.4668 151.385 28.4668H145.83C144.888 28.4668 144.417 28.6695 144.417 29.0749C144.417 29.4158 144.704 29.5862 145.276 29.5862H152.59Z" fill="#171719"/>
<path d="M169.344 26.0207H172.391V35.6946H169.344V32.1014H160.312V35.6946H157.265V26.0207H160.312V29.4066H169.344V26.0207Z" fill="#171719"/>
<path d="M201.875 26.0207C203.094 26.0207 204.082 26.38 204.84 27.0987C205.606 27.8173 205.989 28.7018 205.989 29.7521C205.989 30.8024 205.606 31.6868 204.84 32.4055C204.082 33.1241 203.094 33.4834 201.875 33.4834H194.104V35.6946H191.057V26.0207H201.875ZM201.875 30.8162C202.171 30.8162 202.42 30.7149 202.623 30.5122C202.836 30.3003 202.942 30.0469 202.942 29.7521C202.942 29.4572 202.836 29.2085 202.623 29.0058C202.42 28.7939 202.171 28.6879 201.875 28.6879H194.104V30.8162H201.875Z" fill="#171719"/>
<path fill-rule="evenodd" clip-rule="evenodd" d="M179.401 25.9358C176.694 25.9358 174.5 28.1301 174.5 30.8369C174.5 33.5438 176.694 35.7381 179.401 35.7381H184.153C186.86 35.7381 189.054 33.5438 189.054 30.8369C189.054 28.1301 186.86 25.9358 184.153 25.9358H179.401ZM179.412 28.7183C178.242 28.7183 177.293 29.6668 177.293 30.837C177.293 32.0071 178.242 32.9557 179.412 32.9557H184.146C185.316 32.9557 186.265 32.0071 186.265 30.837C186.265 29.6668 185.316 28.7183 184.146 28.7183H179.412Z" fill="#171719"/>
<path d="M137.149 20.4286V0H159.537C162.06 0 164.104 0.758776 165.671 2.27633C167.258 3.79388 168.051 5.66163 168.051 7.87959C168.051 9.4166 167.649 10.8077 166.847 12.0529C166.063 13.298 164.974 14.2514 163.579 14.9129L167.133 20.4286H159.824L157.101 15.7592H143.484V20.4286H137.149ZM143.484 10.1267H159.537C160.149 10.1267 160.665 9.91272 161.085 9.48469C161.525 9.03721 161.744 8.50218 161.744 7.87959C161.744 7.25701 161.525 6.7317 161.085 6.30367C160.665 5.85619 160.149 5.63245 159.537 5.63245H143.484V10.1267Z" fill="#F6F8FC"/>
<path d="M200.837 0V5.63245H188.424V20.4286H182.118V5.63245H169.706V0H200.837Z" fill="#F6F8FC"/>
<path d="M203.69 20.4286V0H209.997V20.4286H203.69Z" fill="#F6F8FC"/>
</svg>
